<?xml version="1.0" encoding="UTF-8"?>
<svg version="1.1" xmlns="http://www.w3.org/2000/svg" width="98" height="89">
<path d="M0 0 C0.82435547 0.4321582 1.64871094 0.86431641 2.49804688 1.30957031 C3.29122314 1.71771973 4.08439941 2.12586914 4.90161133 2.54638672 C6.11917114 3.22193604 6.11917114 3.22193604 7.36132812 3.91113281 C8.69067383 4.64589844 8.69067383 4.64589844 10.046875 5.39550781 C10.95888672 5.90339844 11.87089844 6.41128906 12.81054688 6.93457031 C13.74189453 7.45019531 14.67324219 7.96582031 15.6328125 8.49707031 C17.92268156 9.76530548 20.21102402 11.03621193 22.49804688 12.30957031 C22.49804688 12.96957031 22.49804688 13.62957031 22.49804688 14.30957031 C14.79876437 19.25422063 14.79876437 19.25422063 10.56054688 19.43457031 C7.49804688 18.30957031 7.49804688 18.30957031 5.57617188 16.72363281 C2.67722336 14.59440511 1.12192163 13.69490466 -2.50195312 13.30957031 C-8.70717501 15.61543023 -14.24900262 19.50747295 -19.68945312 23.22045898 C-21.50195312 24.30957031 -21.50195312 24.30957031 -23.50195312 24.30957031 C-23.50195312 24.96957031 -23.50195312 25.62957031 -23.50195312 26.30957031 C-22.83292969 26.53644531 -22.16390625 26.76332031 -21.47460938 26.99707031 C-19.00965242 28.08540873 -17.13207919 29.17492611 -14.93554688 30.68457031 C-7.80948139 35.74210308 -7.80948139 35.74210308 0.47460938 36.98535156 C3.0144283 35.70812274 5.30017852 34.27658562 7.60546875 32.61621094 C10.81602719 30.39963344 14.19715493 28.47827505 17.57348633 26.52709961 C19.46197021 25.43505558 21.3386088 24.32223144 23.2019043 23.18774414 C24.07177979 22.67236084 24.94165527 22.15697754 25.83789062 21.62597656 C26.61511475 21.15619385 27.39233887 20.68641113 28.19311523 20.20239258 C31.06094574 19.09152973 32.59076467 19.42847432 35.49804688 20.30957031 C36.15804687 20.63957031 36.81804687 20.96957031 37.49804688 21.30957031 C37.49804688 23.94957031 37.49804688 26.58957031 37.49804688 29.30957031 C36.67602783 29.77854736 35.85400879 30.24752441 35.00708008 30.73071289 C31.94107379 32.4802737 28.87535055 34.23032846 25.80981445 35.98071289 C24.48603342 36.7364433 23.16214171 37.49197988 21.83813477 38.24731445 C19.92890362 39.3365599 18.02007898 40.42651475 16.11132812 41.51660156 C15.52466873 41.85109818 14.93800934 42.18559479 14.33357239 42.53022766 C12.719388 43.45258765 11.10861996 44.38091886 9.49804688 45.30957031 C8.07782227 46.09267578 8.07782227 46.09267578 6.62890625 46.89160156 C4.257102 48.13747269 4.257102 48.13747269 3.79101562 50.79003906 C3.75621094 51.68335938 3.72140625 52.57667969 3.68554688 53.49707031 C3.63785156 54.398125 3.59015625 55.29917969 3.54101562 56.22753906 C3.52683594 56.91460937 3.51265625 57.60167969 3.49804688 58.30957031 C1.67614586 57.60422148 -0.134366 56.86939938 -1.93945312 56.12207031 C-2.94878906 55.71601562 -3.958125 55.30996094 -4.99804688 54.89160156 C-5.82433594 54.36953125 -6.650625 53.84746094 -7.50195312 53.30957031 C-7.59387939 52.53202393 -7.68580566 51.75447754 -7.78051758 50.95336914 C-8.28271906 48.05986621 -8.28271906 48.05986621 -11.10644531 46.32080078 C-12.24243164 45.6957666 -13.37841797 45.07073242 -14.54882812 44.42675781 C-15.15704407 44.08581085 -15.76526001 43.74486389 -16.39190674 43.39358521 C-18.33685074 42.30787654 -20.29368403 41.24602148 -22.25195312 40.18457031 C-23.55490381 39.46347907 -24.85699835 38.74083853 -26.15820312 38.01660156 C-28.56036371 36.6810236 -30.96752064 35.35684095 -33.37988281 34.03955078 C-34.92530762 33.18321045 -34.92530762 33.18321045 -36.50195312 32.30957031 C-37.45618164 31.82633301 -38.41041016 31.3430957 -39.39355469 30.84521484 C-41.50195312 29.30957031 -41.50195312 29.30957031 -41.99023438 27.26660156 C-41.82747396 25.28092448 -41.66471354 23.2952474 -41.50195312 21.30957031 C-37.71657153 19.13933116 -33.93031647 16.97062557 -30.14331055 14.80322266 C-28.86020291 14.06859824 -27.57731809 13.3335845 -26.29467773 12.59814453 C-23.20634177 10.82751468 -20.11480455 9.06322539 -17.01513672 7.3125 C-14.75400037 6.03354982 -12.52954477 4.72169918 -10.30517578 3.37695312 C-9.34530762 2.81073242 -8.38543945 2.24451172 -7.39648438 1.66113281 C-6.56608643 1.15662598 -5.73568848 0.65211914 -4.88012695 0.13232422 C-2.50195312 -0.69042969 -2.50195312 -0.69042969 0 0 Z " fill="#FFFFFF" transform="translate(50.501953125,0.6904296875)"/>
<path d="M0 0 C8.56 2.85333333 8.56 2.85333333 11 5 C11.37859559 7.94093052 11.47775614 10.27644958 11.3125 13.1875 C11.27866211 14.31188477 11.27866211 14.31188477 11.24414062 15.45898438 C11.18529157 17.3068447 11.09560938 19.15367667 11 21 C12.21042969 21.33644531 12.21042969 21.33644531 13.4453125 21.6796875 C17.92539684 23.34371882 21.79675967 25.65731899 25.875 28.125 C26.65875 28.59292969 27.4425 29.06085938 28.25 29.54296875 C30.1697641 30.69014486 32.08531523 31.84436621 34 33 C34 28.38 34 23.76 34 19 C37.80241571 20.52096628 41.36474615 22.14010268 45 24 C45.02887236 27.81248426 45.04675492 31.6249407 45.0625 35.4375 C45.07087891 36.52611328 45.07925781 37.61472656 45.08789062 38.73632812 C45.09111328 39.77080078 45.09433594 40.80527344 45.09765625 41.87109375 C45.10289307 42.82943115 45.10812988 43.78776855 45.11352539 44.77514648 C45 47 45 47 44 48 C34.80083994 49.36717878 28.44505642 44.84546954 20.875 40.25 C19.6273692 39.51121576 18.37867662 38.77422154 17.12890625 38.0390625 C14.8196721 36.67782733 12.51908444 35.30504857 10.22216797 33.92285156 C6.84050458 31.90481998 3.41916958 29.95381119 0 28 C0 18.76 0 9.52 0 0 Z " fill="#FFFFFF" transform="translate(9,41)"/>
<path d="M0 0 C0.26200753 4.54056803 0.42142326 9.07919403 0.5625 13.625 C0.63791016 14.91019531 0.71332031 16.19539063 0.79101562 17.51953125 C1.00790229 26.82155937 1.00790229 26.82155937 -1.78198242 30.08349609 C-4.11873853 31.65762157 -6.43425385 32.84190213 -9 34 C-10.29893455 34.76426378 -11.59013696 35.54190992 -12.87109375 36.3359375 C-14.05798872 37.01894981 -15.24676041 37.69871254 -16.4375 38.375 C-17.04787109 38.72949219 -17.65824219 39.08398438 -18.28710938 39.44921875 C-22.75343871 42 -22.75343871 42 -25 42 C-25.92017937 31.16233184 -25.92017937 31.16233184 -23.6640625 28.3125 C-22 27.25 -22 27.25 -19 26 C-20.96382007 24.49440461 -22.78263366 23.10868317 -25 22 C-25 19.03 -25 16.06 -25 13 C-20.8085556 10.9042778 -20.19789511 10.70833997 -16 12 C-15.01 12.66 -14.02 13.32 -13 14 C-13.061875 12.80375 -13.12375 11.6075 -13.1875 10.375 C-12.94921875 8.1796875 -12.94921875 8.1796875 -12 6 C-8.91483159 3.67762126 -4.02667317 0 0 0 Z " fill="#FFFFFF" transform="translate(89,40)"/>
</svg>
